<svg xmlns="http://www.w3.org/2000/svg" width="105" height="30">
  <path d="M46.504 25v4.467H49V30h-3v-5h.504zm19.26 0L68 30h-.588L65.5 25.65 63.559 30H63l2.235-5h.53zm20.643.45c.178.178.29.422.32.676l.006.127c0 .505-.296.981-.8 1.16.55.165.999.485 1.06 1.077l.007.142c0 .862-.711 1.368-1.807 1.368H83v-4.996h2.104a1.75 1.75 0 011.303.446zM7.372 9l4.395 6.603-7.798 11.733h18.09l-2.07-3.117h3.204l2.495 3.797c.085.114.17.255.227.369.057.141.085.311.085.453 0 .425-.227.794-.595 1.02-.17.085-.369.142-.567.142H1.162c-.34 0-.68-.142-.907-.425-.028-.028-.057-.057-.057-.085 0-.028-.056-.057-.056-.113A1.274 1.274 0 010 28.838c0-.283.113-.567.284-.793.056-.085 8.279-12.442 8.279-12.47L6.55 12.57l-.17-.255a2.043 2.043 0 01-.227-.907c0-.227.028-.454.113-.652.085-.255.964-1.559 1.106-1.757zm12.121-9L39 30h-2.288c-.503 0-.977-.229-1.284-.629-.028-.028-.028-.057-.028-.057s-.028-.028-.028-.057l-4.632-7.114H18.32c-.306.028-.613-.029-.92-.114A2.579 2.579 0 0116.172 21c-.056-.114-.92-1.457-1.005-1.543H29.01l-9.516-14.6-2.93 4.514L15 6.943 19.493 0zm85.318 25.603l-.346.42c-.41-.33-.977-.54-1.512-.54-.644 0-1.07.31-1.127.691l-.007.09c0 .45.283.72 1.449.96 1.097.225 1.663.584 1.726 1.251l.006.129c0 .84-.756 1.38-1.795 1.38-.85.09-1.638-.21-2.205-.72l.378-.42c.472.45 1.134.69 1.795.69.647 0 1.102-.314 1.16-.746l.006-.094c0-.45-.252-.72-1.355-.93-1.126-.226-1.695-.559-1.758-1.272l-.006-.139c0-.78.725-1.35 1.733-1.35.661-.03 1.323.18 1.858.6zM85.104 27.74h-1.57v1.784h1.659c.691 0 1.15-.285 1.208-.782l.006-.11c0-.565-.444-.892-1.303-.892zm-.06-2.201h-1.51v1.725h1.48c.682 0 1.156-.297 1.127-.922 0-.506-.385-.803-1.097-.803zM71.005 3a.68.68 0 01.401.146c.115.088.2.206.258.352l2.893 8.994 2.894-8.994a.521.521 0 01.257-.352c.115-.087.258-.117.401-.146h1.375c.144 0 .287.059.373.146a.548.548 0 01.143.352.559.559 0 01-.057.205l-5.357 15.82a.792.792 0 01-.258.352c-.114.088-.258.147-.4.117h-1.405c-.143.03-.257-.058-.343-.175a.478.478 0 01-.058-.44l1.118-3.223-4.183-12.45c-.028-.06-.028-.118-.057-.206 0-.146.057-.264.143-.352A.603.603 0 0169.516 3h1.49zm-60.78 1L19 17h-3.294L9.35 7.553A1.913 1.913 0 019 6.427c0-.318.087-.607.204-.867.088-.173.991-1.531 1.02-1.56zm74.9-1c.115 0 .23.058.316.146.085.087.143.204.114.32V4.75a4.569 4.569 0 011.403-1.283C87.5 3.146 88.13 3 88.76 3c.773 0 1.517.175 2.175.583.659.379 1.174.962 1.517 1.632.373.729.573 1.516.544 2.332v7.987a.618.618 0 01-.114.32.454.454 0 01-.315.146h-1.66a.45.45 0 01-.458-.437V7.868a2.65 2.65 0 00-.573-1.778 2.124 2.124 0 00-1.631-.612 2.533 2.533 0 00-2.004.845c-.487.554-.744 1.34-.744 2.303v6.908a.61.61 0 01-.115.32.454.454 0 01-.315.146h-1.66c-.114 0-.2-.058-.286-.146-.086-.087-.143-.204-.115-.32V3.466a.47.47 0 01.43-.466h1.689zm-32.394.555c.697.35 1.278.872 1.685 1.541.407.698.61 1.483.581 2.297v8.142a.472.472 0 01-.436.465h-1.51a.441.441 0 01-.32-.116.377.377 0 01-.116-.35v-1.133a4.636 4.636 0 01-3.545 1.57c-1.076.029-2.122-.32-2.935-1.047-.756-.669-1.162-1.657-1.133-2.675a3.209 3.209 0 011.046-2.471c.697-.67 1.656-1.076 2.934-1.28.32-.029.61-.058.901-.116 1.017-.116 1.627-.204 1.83-.262a.863.863 0 00.814-.872v-.03c0-.523-.232-.988-.668-1.279a2.65 2.65 0 00-1.656-.494c-1.162 0-2.005.436-2.557 1.28a.525.525 0 01-.407.29.49.49 0 01-.29-.087l-1.221-.814a.498.498 0 01-.203-.378c0-.058.029-.145.029-.204.406-.785 1.075-1.424 1.86-1.86a6.24 6.24 0 012.789-.67 5.454 5.454 0 012.528.553zm50.452-.095c.634.292 1.211.7 1.673 1.226a.49.49 0 01.144.35.627.627 0 01-.202.439l-.923.934a.478.478 0 01-.346.146.491.491 0 01-.375-.205 2.791 2.791 0 00-2.077-.846 2.551 2.551 0 00-2.539 2.54v2.89c0 1.373 1.037 2.478 2.37 2.564l.169.005c.779.03 1.529-.292 2.077-.846.086-.117.23-.176.375-.205.144 0 .26.059.346.146l.923.934a.627.627 0 01.202.438.486.486 0 01-.144.35 4.906 4.906 0 01-1.702 1.256 5.151 5.151 0 01-4.616-.263 5.053 5.053 0 01-1.846-1.897A5.162 5.162 0 0196 10.817V8.19c0-.905.23-1.81.692-2.599.433-.788 1.096-1.43 1.846-1.897 1.414-.818 3.145-.935 4.645-.234zM62.495 3c.74 0 1.51.117 2.192.35.681.234 1.333.555 1.896.992a.646.646 0 01.148.234c.03.087.03.175 0 .262-.119.292-.356.76-.652 1.372-.089.146-.237.262-.415.233a.509.509 0 01-.296-.087c-1.007-.642-1.955-.963-2.814-.963-.415-.03-.83.087-1.185.32a1.037 1.037 0 00-.444.876c0 .38.178.73.474.934.563.38 1.155.671 1.777.875.83.321 1.481.584 1.955.817.504.263.948.613 1.274 1.08.414.555.622 1.196.592 1.868 0 .7-.207 1.4-.592 2.013a4.022 4.022 0 01-1.63 1.342 5.59 5.59 0 01-2.399.467 5.338 5.338 0 01-2.25-.32 6.926 6.926 0 01-1.956-1.022.642.642 0 01-.148-.233.396.396 0 010-.263c.09-.234.356-.7.74-1.372a.556.556 0 01.445-.262c.119 0 .207.029.296.087.445.321.948.584 1.481.788.474.175.978.263 1.481.234.504.029.978-.088 1.422-.35a.997.997 0 00.474-.934.926.926 0 00-.415-.788 9.887 9.887 0 00-1.6-.73l-.799-.291a9.578 9.578 0 01-1.659-.788 3.64 3.64 0 01-1.155-1.168 3.352 3.352 0 01-.474-1.838 3.388 3.388 0 011.155-2.714c.77-.67 1.807-1.021 3.08-1.021zm-9.91 7.156l-1.627.232c-.871.087-1.453.175-1.714.233-1.191.203-1.773.727-1.773 1.54-.029.408.175.815.494 1.077.378.29.843.436 1.308.407.581 0 1.133-.146 1.627-.436.494-.291.901-.67 1.22-1.134a2.71 2.71 0 00.466-1.483v-.436z" fill-rule="nonzero"/>
</svg>
